<?xml version="1.0" encoding="UTF-8" standalone="no"?>
<svg
   width="1080"
   zoomAndPan="magnify"
   viewBox="0 0 810 809.99996"
   height="1080"
   preserveAspectRatio="xMidYMid"
   version="1.0"
   id="svg49"
   sodipodi:docname="MindMates-Logo-No-Text.svg"
   inkscape:version="1.4 (86a8ad7, 2024-10-11)"
   inkscape:export-filename="MindMates-Logo-With-Text.png"
   inkscape:export-xdpi="170.66667"
   inkscape:export-ydpi="170.66667"
   xmlns:inkscape="http://www.inkscape.org/namespaces/inkscape"
   xmlns:sodipodi="http://sodipodi.sourceforge.net/DTD/sodipodi-0.dtd"
   xmlns="http://www.w3.org/2000/svg"
   xmlns:svg="http://www.w3.org/2000/svg">
  <sodipodi:namedview
     id="namedview49"
     pagecolor="#505050"
     bordercolor="#eeeeee"
     borderopacity="1"
     inkscape:showpageshadow="0"
     inkscape:pageopacity="0"
     inkscape:pagecheckerboard="0"
     inkscape:deskcolor="#505050"
     inkscape:zoom="0.56936829"
     inkscape:cx="342.48483"
     inkscape:cy="557.63555"
     inkscape:window-width="1920"
     inkscape:window-height="991"
     inkscape:window-x="-9"
     inkscape:window-y="-9"
     inkscape:window-maximized="1"
     inkscape:current-layer="svg49"
     showgrid="false" />
  <defs
     id="defs10">
    <g
       id="g1" />
    <clipPath
       id="636293bd18">
      <path
         d="m 249.28516,384.32812 h 311.25 v 237.69532 h -311.25 z m 0,0"
         clip-rule="nonzero"
         id="path1" />
    </clipPath>
    <clipPath
       id="7f6ab8d182">
      <path
         d="m 304.21094,527 h 35.17968 v 34.74219 h -35.17968 z m 0,0"
         clip-rule="nonzero"
         id="path2" />
    </clipPath>
    <clipPath
       id="76676cdf76">
      <path
         d="M 304.21094,522 H 321 v 7 h -16.78906 z m 0,0"
         clip-rule="nonzero"
         id="path3" />
    </clipPath>
    <clipPath
       id="c6557d8fc8">
      <path
         d="m 350.63672,456 h 35.25 v 34.94141 h -35.25 z m 0,0"
         clip-rule="nonzero"
         id="path4" />
    </clipPath>
    <clipPath
       id="041354c405">
      <path
         d="m 369,451 h 16.88672 v 7 H 369 Z m 0,0"
         clip-rule="nonzero"
         id="path5" />
    </clipPath>
    <clipPath
       id="446457edd1">
      <path
         d="m 367,448.19141 h 6 V 461 h -6 z m 0,0"
         clip-rule="nonzero"
         id="path6" />
    </clipPath>
    <clipPath
       id="04132d45b3">
      <path
         d="m 465.02734,527 h 35.25 v 34.74219 h -35.25 z m 0,0"
         clip-rule="nonzero"
         id="path7" />
    </clipPath>
    <clipPath
       id="8d2b84f1a2">
      <path
         d="m 483,522 h 17.27734 v 7 H 483 Z m 0,0"
         clip-rule="nonzero"
         id="path8" />
    </clipPath>
    <clipPath
       id="781e1e22af">
      <path
         d="m 429.77344,445 h 35.17968 v 34.67578 h -35.17968 z m 0,0"
         clip-rule="nonzero"
         id="path9" />
    </clipPath>
    <clipPath
       id="6707292165">
      <path
         d="M 429.77344,440 H 447 v 7 h -17.22656 z m 0,0"
         clip-rule="nonzero"
         id="path10" />
    </clipPath>
  </defs>
  <g
     id="g2"
     transform="matrix(2.2876287,0,0,2.2876287,-467.04332,-429.67474)">
    <g
       clip-path="url(#636293bd18)"
       id="g11"
       transform="translate(-23.710486,-138.31118)">
      <path
         fill="#216d3b"
         d="m 258.94531,489.46094 c 4.23828,5.98437 12.65235,16.20312 27.10938,22.1875 -5.60547,-16.51563 -19.31641,-21.12891 -27.10938,-22.1875 z m 67.1836,132.625 c -2.11719,0 -3.48829,-1.7461 -3.48829,-3.49219 0,-1.74609 1.4336,-3.48828 3.48829,-3.48828 h 48.86328 c 3.48828,-3.17969 16.88672,-17.26563 18.25781,-42.19531 0.375,-4.54688 0,-9.47266 -0.68359,-14.08204 -1.4336,-9.84765 -5.29688,-18.63671 -11.96485,-25.30468 -7.04297,-7.04297 -17.26562,-11.58985 -31.66015,-12.33985 -6.35938,-0.375 -13.33985,0 -21.12891,1.4336 -4.55078,0.6875 -8.78906,1.05859 -13.02344,1.05859 -1.43359,0 -8.78906,1.43359 -17.26562,4.23828 -8.41407,36.21094 -35.89844,30.60156 -38.32813,29.91406 h -0.375 c -1.74219,-0.37109 -2.80469,-2.11718 -2.49219,-4.23828 3.86329,-16.20312 21.8125,-25.67578 36.58204,-30.97265 0.375,-0.375 0.6875,-0.375 1.0625,-0.375 0.37109,-0.3711 0.68359,-0.3711 1.43359,-0.6836 -31.66016,-7.04297 -44.6875,-32.03515 -45.74609,-34.08984 0,-0.375 -0.375,-1.0625 -0.375,-1.43359 0,-1.7461 1.43359,-3.49219 3.17968,-3.49219 0,0 33.40625,-2.11719 41.13282,32.03515 9.16015,2.49219 20.0664,3.17969 33.03125,1.4336 8.41406,-1.4336 15.82812,-1.7461 22.5,-1.4336 15.82812,0.6836 27.42187,5.98438 35.14843,13.71094 -3.17968,-6.66797 -6.66797,-13.33594 -11.28125,-20.0664 -10.53125,-15.83204 -24.61718,-32.03516 -40.82031,-44.6875 -4.55078,-3.48829 -8.78906,-6.35547 -13.02734,-8.10157 -1.74219,3.17969 -5.60938,6.35547 -10.90625,8.78907 -5.98047,2.11718 -14.08203,3.17578 -24.61719,1.05859 -5.60938,-1.43359 -12.33984,-3.49219 -19.32031,-7.41797 -1.74219,-0.68359 -2.49219,-2.80469 -1.74219,-4.23828 0.37109,-0.68359 0.68359,-1.05859 1.43359,-1.43359 0,0 34.83594,-23.55469 72.48047,5.60937 16.88672,13.33984 31.28516,29.91406 42.19141,46.80469 6.66797,10.22265 12.33984,20.7539 16.20312,30.22656 -0.375,-8.78516 -1.74609,-17.94922 -3.86328,-27.42187 -4.55078,-20.75391 -12.33984,-42.19141 -23.18359,-62.63282 -1.4336,-2.80468 -3.17969,-5.60937 -4.92578,-8.10156 -8.10157,1.43359 -35.14844,3.17578 -50.29297,-26.36328 -1.0586,-1.74609 -0.375,-3.86328 1.43359,-4.55078 0.375,-0.375 0.6875,-0.375 1.0586,-0.375 2.49218,-0.3711 36.95703,-4.54688 58.71093,36.21094 11.27735,20.7539 19.31641,43.2539 23.92969,64.3789 1.74609,8.10156 2.80469,15.83203 3.49219,23.1836 1.42969,-4.23829 2.80078,-8.78516 4.23437,-13.33594 -3.86328,-9.84766 -30.97265,-84.38281 -4.92187,-126.94922 l 3.17969,-4.55078 2.80468,4.55078 c 0,0.37109 24.61719,41.50391 -10.22265,56.64844 1.74609,24.24609 8.41406,47.80078 12.65234,60.14062 0.375,-0.37109 0.375,-1.05859 0.68359,-1.74219 7.41797,-20.7539 16.89063,-42.8789 27.11329,-62.26171 21.8125,-40.82032 56.27734,-36.58204 58.70703,-36.21094 0.375,0 0.68359,0 1.05859,0.375 1.74609,0.6875 2.49219,2.80469 1.74609,4.55078 -15.45703,29.53906 -42.5664,27.79687 -50.66796,26.36328 -1.7461,2.49219 -3.49219,5.29688 -4.92579,8.10156 -10.21875,19.32032 -19.32031,40.82032 -26.73437,61.19922 -6.66797,19.00781 -11.96484,36.58203 -14.76953,50.29297 v 0.375 c 1.05859,7.41797 1.43359,14.08594 1.74219,19.69531 0,7.04297 0.375,13.02344 2.12109,18.63282 1.74219,-5.60938 2.11719,-11.58985 2.11719,-18.63282 0.375,-5.60937 0.6875,-12.33984 1.74609,-19.69531 2.49219,-14.76953 10.22266,-33.40234 22.5,-52.03906 10.90625,-16.89063 25.30078,-33.40625 42.56641,-46.80469 37.26562,-29.16406 72.10547,-5.60937 72.48047,-5.60937 0.37109,0.375 0.68359,0.6875 1.05859,1.43359 0.68359,1.43359 0,3.49219 -1.43359,4.23828 -7.41797,3.86328 -14.08594,5.98438 -19.69532,7.41797 -10.53125,2.11719 -18.63281,1.05859 -24.61718,-1.05859 -5.29688,-2.4961 -9.16016,-5.60938 -10.90625,-8.78907 -4.23829,1.7461 -8.41407,4.55078 -13.02344,8.10157 C 461.62109,476.25 447.59766,492.45312 437,508.28125 c -4.23438,6.67187 -8.10156,13.33984 -11.27734,20.07031 7.72656,-7.72656 19.32031,-13.02734 35.14843,-13.71094 6.66797,-0.375 14.08594,0 22.5,1.4336 13.02344,1.74609 23.92969,1.05859 33.03125,-1.4336 7.72657,-34.08984 41.13282,-32.03515 41.13282,-32.03515 1.74218,0 3.17578,1.74609 3.17578,3.49219 0,0.37109 0,1.05859 -0.3711,1.43359 -1.0625,2.11719 -14.08593,27.10937 -45.74609,34.08984 0.68359,0.3711 1.05859,0.3711 1.43359,0.6836 0.375,0 0.6836,0 1.0586,0.375 14.76953,5.29687 32.71875,14.76953 36.58203,30.97265 0.375,2.1211 -0.6836,3.86719 -2.49219,4.23828 h -0.37109 c -2.4961,0.6875 -29.91797,6.35938 -38.33203,-29.91406 -8.41016,-2.80469 -15.82813,-4.23828 -17.26172,-4.23828 -4.23828,0 -8.41407,-0.37109 -13.02344,-1.05859 -7.73047,-1.4336 -14.77344,-1.7461 -21.12891,-1.4336 -14.39843,0.6875 -24.61718,5.29688 -31.28515,12.33985 -7.04297,6.66797 -10.90625,15.45703 -12.33985,25.30468 -0.6875,4.54688 -1.0625,9.47266 -0.6875,14.08204 1.4336,24.99218 14.76953,39.01562 18.26172,42.19531 h 49.42188 c 2.11718,0 3.48828,1.74219 3.48828,3.48828 0,1.74609 -1.4336,3.49219 -3.48828,3.49219 H 326.12891 Z m 58.02343,-7.04297 h 26.05078 c -8.78906,-8.78906 -11.59375,-16.51563 -13.02734,-24.99219 -3.17578,11.65234 -8.78516,20.06641 -13.02344,24.99219 z m 36.27344,0 h 5.98047 c -4.23828,-4.92578 -9.84766,-13.33985 -13.02344,-24.99219 -0.6875,4.23828 -1.74609,8.78516 -4.23828,13.33594 2.49219,3.55469 5.98047,7.78906 11.28125,11.65625 z m -60.89062,-79.46094 c -1.7461,0 -3.86329,0.37109 -5.60938,1.05859 -2.80469,0.6836 -5.29687,2.49219 -7.72656,4.55079 -2.1211,2.49218 -3.86719,4.92187 -4.55078,7.72656 -0.6875,1.74609 -1.0586,3.86328 -1.0586,5.60937 1.74219,0 3.86328,-0.375 5.60938,-1.05859 2.80469,-0.6875 5.29687,-2.49609 7.72656,-4.55078 2.11719,-2.49219 3.86328,-4.92578 4.55078,-7.72656 0.7461,-1.7461 1.0586,-3.86719 1.0586,-5.60938 z m -8.03907,-5.30078 c 3.86328,-1.42969 8.10157,-1.74219 11.58985,-1.05859 l 2.49609,0.375 0.37109,2.11718 c 0.6875,3.86719 0.375,7.73047 -1.05859,11.59375 -1.05859,3.86328 -3.17969,7.41797 -6.35547,10.22266 -2.80469,3.17578 -6.35937,5.29687 -9.84765,6.66797 -3.86329,1.05859 -8.10157,1.43359 -11.59375,0.68359 l -2.49219,-0.375 -0.375,-2.11719 c -0.6836,-3.86328 -0.3711,-7.72656 1.0625,-11.59375 1.05859,-3.86328 3.17578,-7.41406 6.35547,-10.21875 2.80468,-3.11718 6.29297,-5.23437 9.84765,-6.29687 z m 95.97657,-4.23438 c 3.48828,-0.6875 7.72656,-0.375 11.58984,1.0586 3.49219,1.43359 7.04297,3.48828 9.84766,6.35547 3.17968,3.17968 5.29687,6.66797 6.66796,10.22265 1.0625,3.86328 1.4336,8.10157 0.6875,11.58985 l -0.375,2.49218 -2.49218,0.375 c -3.49219,0.6875 -7.72657,0.375 -11.28125,-1.05859 -3.86328,-1.05859 -7.41407,-3.17969 -10.21875,-6.35547 -3.17969,-3.17969 -5.30078,-6.67187 -6.35938,-10.22265 -1.43359,-3.86329 -1.74219,-7.72657 -1.05859,-11.59375 l 0.375,-2.11719 z m 9.16015,7.41407 c -1.74609,-0.6836 -3.48828,-0.6836 -5.60937,-0.6836 0,1.74219 0.375,3.48828 1.05859,5.60938 0.6875,2.80469 2.49609,5.29687 4.55078,7.41406 2.49219,2.49219 4.92578,3.86328 7.73047,4.92578 1.74219,0.6836 3.86328,1.0586 5.60547,1.0586 0,-2.1211 -0.37109,-3.86329 -1.05859,-5.60938 -0.6836,-2.80469 -2.49219,-5.60937 -4.54688,-7.72656 -2.12109,-2.1836 -4.92578,-3.92969 -7.73047,-4.98828 z M 481.25,506.03906 c 1.74609,0 3.86328,-0.375 5.60937,-1.05859 2.80469,-1.0586 5.29688,-2.49219 7.41797,-4.92578 2.49219,-2.11719 3.86328,-4.92188 4.92188,-7.41407 0.6875,-2.12109 1.05859,-3.86328 1.05859,-5.60937 -2.11719,-0.375 -3.86328,0 -5.98047,0.68359 -2.49218,1.0625 -5.29687,2.4961 -7.41797,4.92578 -2.49218,2.11719 -3.86328,4.92188 -4.92187,7.41407 -0.6875,2.12109 -0.6875,3.86718 -0.6875,5.98437 z m 7.73047,5.23438 c -3.86719,1.43359 -7.73047,1.74609 -11.59375,1.0625 l -2.11719,-0.375 -0.375,-2.49219 c -0.6875,-3.49219 -0.6875,-7.73047 0.68359,-11.59375 1.4336,-3.48828 3.49219,-7.04297 6.35938,-10.21875 3.17578,-2.80469 6.66797,-4.92578 10.21875,-6.35938 3.86328,-1.43359 7.73047,-1.74609 11.59375,-1.05859 l 2.11719,0.68359 0.6875,2.1211 c 0.68359,3.86328 0.37109,7.72656 -1.0586,11.58984 -1.0625,3.49219 -3.17968,7.04297 -6.35937,10.22266 -3.11719,2.92969 -6.29297,5.35937 -10.15625,6.41797 z m -155.8086,2.49218 c -3.86328,0.6875 -7.72656,0.375 -11.58984,-1.05859 -3.49219,-1.43359 -7.04297,-3.48828 -10.22266,-6.35547 -2.80468,-3.17969 -5.29687,-6.66797 -6.35546,-10.22265 -1.4336,-3.86329 -1.7461,-8.10157 -1.0625,-11.58985 l 0.6875,-2.49219 2.11718,-0.375 c 3.86719,-0.6875 7.73047,-0.375 11.59375,1.0586 3.48828,1.05859 7.04297,3.49219 10.22266,6.35547 2.80078,3.17968 4.92187,6.67187 6.35547,10.22265 1.43359,3.86328 1.43359,7.72657 0.68359,11.59375 l -0.37109,2.11719 z m -9.47265,-7.41406 c 2.12109,0.6836 3.86328,1.0586 5.60937,0.6836 0,-1.74219 0,-3.48829 -0.6875,-5.60938 -1.05859,-2.49219 -2.49218,-5.29687 -4.92187,-7.41406 -2.11719,-2.49219 -4.92188,-3.86328 -7.41797,-4.92578 -2.11719,-0.6836 -3.86328,-1.0586 -5.60547,-1.0586 -0.375,2.1211 0,3.86328 0.68359,5.98438 1.0586,2.49219 2.49219,5.29687 4.92188,7.41406 2.12109,2.49609 4.61328,3.86719 7.41797,4.92578 z m 79.83594,-108.3164 c -5.60938,11.96484 -7.41797,26.05078 -7.41797,40.07421 17.94922,-9.47265 11.96875,-30.22656 7.41797,-40.07421 z m 49.23437,32.34375 c 8.41406,0.6875 25.30469,-0.6836 36.95703,-18.63282 -7.78906,0.375 -23.24609,2.80469 -36.95703,18.63282 z m -131.5625,-18.63282 c 11.58984,17.94922 28.48047,19.32032 37.26953,18.63282 -14.02344,-15.82813 -29.16797,-18.25782 -37.26953,-18.63282 z m 176.24609,40.82032 c 1.4336,2.12109 3.86719,3.86328 7.41797,5.29687 4.55078,1.74609 11.28125,2.80469 20.37891,0.6875 3.49219,-0.6875 7.41797,-2.12109 11.96484,-3.86328 -7.78906,-3.17969 -22.55859,-7.73047 -39.76172,-2.12109 z m 48.86329,99.15625 c -4.23829,-9.84766 -15.14454,-16.51563 -25.67969,-20.75391 6.35937,19.38281 19.32031,21.12891 25.67969,20.75391 z m 5.29687,-62.26172 c -7.72656,1.05859 -21.4375,5.60937 -27.10937,22.1875 14.39453,-5.98438 22.87109,-16.20313 27.10937,-22.1875 z M 306.125,457.80078 c 3.17969,-1.43359 5.60937,-3.17578 7.04297,-5.29687 -17.26563,-5.60938 -32.03516,-1.0586 -39.76172,2.12109 4.54687,1.74219 8.41406,3.17578 11.96484,3.86328 9.09766,2.17969 15.82813,1.12109 20.75391,-0.6875 z m -16.20313,73.16797 c -10.53515,4.23828 -21.4414,10.90625 -25.67968,20.75391 6.35937,0.375 19.69531,-1.3711 25.67968,-20.75391 z m 0,0"
         fill-opacity="1"
         fill-rule="nonzero"
         id="path11" />
    </g>
    <g
       clip-path="url(#7f6ab8d182)"
       id="g12"
       transform="translate(-23.710488,-138.31118)">
      <path
         fill="#c81919"
         d="m 314.75391,527.33203 c 3.52343,0 3.52343,1.17578 7.04687,1.17578 3.52344,0 3.52344,-1.17578 7.05078,-1.17578 4.69922,0 10.57031,2.34766 10.57031,10.57422 0,12.92187 -7.04687,23.49609 -11.74609,23.49609 -3.52344,0 -3.52344,-1.17578 -5.875,-1.17578 -2.34766,0 -2.34766,1.17578 -5.875,1.17578 -4.69922,0 -11.74609,-10.57422 -11.74609,-23.49609 0,-8.22656 5.875,-10.57422 10.57422,-10.57422 z m 0,0"
         fill-opacity="1"
         fill-rule="nonzero"
         id="path12" />
    </g>
    <g
       clip-path="url(#76676cdf76)"
       id="g13"
       transform="translate(-23.710488,-138.31118)">
      <path
         fill="#77b255"
         d="m 320.625,527.33203 c 0,0 -3.52344,-4.69922 -9.39844,-4.69922 -4.69922,0 -7.04687,2.34766 -7.04687,2.34766 0,0 4.69922,3.52734 8.22265,3.52734 3.52344,0 8.22266,-1.17578 8.22266,-1.17578 z m 0,0"
         fill-opacity="1"
         fill-rule="nonzero"
         id="path13" />
    </g>
    <path
       fill="#662113"
       d="m 298.09029,392.54429 c 0.64844,0 1.17578,-0.52735 1.17578,-1.17578 0,-4.03907 -1.41015,-7.76953 -3.86719,-10.22657 -0.46093,-0.46093 -1.20312,-0.46093 -1.66406,0 -0.45703,0.45704 -0.45703,1.20313 0,1.66016 2.02344,2.01953 3.17969,5.14453 3.17969,8.56641 0,0.64843 0.52734,1.17578 1.17578,1.17578 z m 0,0"
       fill-opacity="1"
       fill-rule="nonzero"
       id="path14" />
    <g
       clip-path="url(#c6557d8fc8)"
       id="g42"
       transform="translate(-23.710488,-138.31118)">
      <path
         fill="#c81919"
         d="m 375.34375,456.53125 c -3.52344,0 -3.52344,1.17578 -7.04688,1.17578 -3.52734,0 -3.52734,-1.17578 -7.05078,-1.17578 -4.69922,0 -10.57422,2.34766 -10.57422,10.57422 0,12.92187 7.05079,23.49609 11.75,23.49609 3.52344,0 3.52344,-1.17578 5.875,-1.17578 2.34766,0 2.34766,1.17578 5.8711,1.17578 4.69922,0 11.75,-10.57422 11.75,-23.49609 0,-8.22656 -5.875,-10.57422 -10.57422,-10.57422 z m 0,0"
         fill-opacity="1"
         fill-rule="nonzero"
         id="path41" />
    </g>
    <g
       clip-path="url(#041354c405)"
       id="g43"
       transform="translate(-23.710488,-138.31118)">
      <path
         fill="#77b255"
         d="m 369.46875,456.53125 c 0,0 3.52734,-4.69922 9.39844,-4.69922 4.69922,0 7.05078,2.34766 7.05078,2.34766 0,0 -4.69922,3.52734 -8.22266,3.52734 -3.52734,0 -8.22656,-1.17578 -8.22656,-1.17578 z m 0,0"
         fill-opacity="1"
         fill-rule="nonzero"
         id="path42" />
    </g>
    <g
       clip-path="url(#446457edd1)"
       id="g44"
       transform="translate(-23.710488,-138.31118)">
      <path
         fill="#662113"
         d="m 368.29687,460.05469 c -0.64843,0 -1.17578,-0.52735 -1.17578,-1.17578 0,-4.03907 1.41016,-7.76954 3.86719,-10.22657 0.46094,-0.46093 1.20313,-0.46093 1.66016,0 0.46093,0.45703 0.46093,1.20313 0,1.66016 -2.01953,2.01953 -3.17969,5.14453 -3.17969,8.56641 0,0.64843 -0.52344,1.17578 -1.17188,1.17578 z m 0,0"
         fill-opacity="1"
         fill-rule="nonzero"
         id="path43" />
    </g>
    <g
       clip-path="url(#04132d45b3)"
       id="g45"
       transform="translate(-23.710488,-138.31118)">
      <path
         fill="#c81919"
         d="m 489.73437,527.33203 c -3.52343,0 -3.52343,1.17578 -7.04687,1.17578 -3.52344,0 -3.52344,-1.17578 -7.05078,-1.17578 -4.69922,0 -10.57031,2.34766 -10.57031,10.57422 0,12.92187 7.04687,23.49609 11.74609,23.49609 3.52344,0 3.52344,-1.17578 5.875,-1.17578 2.34766,0 2.34766,1.17578 5.875,1.17578 4.69922,0 11.74609,-10.57422 11.74609,-23.49609 0,-8.22656 -5.875,-10.57422 -10.57422,-10.57422 z m 0,0"
         fill-opacity="1"
         fill-rule="nonzero"
         id="path44" />
    </g>
    <g
       clip-path="url(#8d2b84f1a2)"
       id="g46"
       transform="translate(-23.710488,-138.31118)">
      <path
         fill="#77b255"
         d="m 483.86328,527.33203 c 0,0 3.52344,-4.69922 9.39844,-4.69922 4.69922,0 7.04687,2.34766 7.04687,2.34766 0,0 -4.69922,3.52734 -8.22265,3.52734 -3.52344,0 -8.22266,-1.17578 -8.22266,-1.17578 z m 0,0"
         fill-opacity="1"
         fill-rule="nonzero"
         id="path45" />
    </g>
    <path
       fill="#662113"
       d="m 458.97701,392.54429 c -0.64844,0 -1.17578,-0.52735 -1.17578,-1.17578 0,-4.03907 1.41015,-7.76953 3.87109,-10.22657 0.45703,-0.46093 1.19922,-0.46093 1.66016,0 0.45703,0.45704 0.45703,1.20313 0,1.66016 -2.02344,2.01953 -3.17969,5.14453 -3.17969,8.56641 0,0.64843 -0.52734,1.17578 -1.17578,1.17578 z m 0,0"
       fill-opacity="1"
       fill-rule="nonzero"
       id="path46" />
    <g
       clip-path="url(#781e1e22af)"
       id="g47"
       transform="translate(-23.710488,-138.31118)">
      <path
         fill="#c81919"
         d="m 440.3125,445.26953 c 3.52734,0 3.52734,1.17188 7.05078,1.17188 3.52344,0 3.52344,-1.17188 7.04688,-1.17188 4.69921,0 10.57421,2.34766 10.57421,10.57031 0,12.92578 -7.04687,23.4961 -11.74609,23.4961 -3.52734,0 -3.52734,-1.17188 -5.875,-1.17188 -2.35156,0 -2.35156,1.17188 -5.875,1.17188 -4.69922,0 -11.74609,-10.57032 -11.74609,-23.4961 0,-8.22265 5.87109,-10.57031 10.57031,-10.57031 z m 0,0"
         fill-opacity="1"
         fill-rule="nonzero"
         id="path47" />
    </g>
    <g
       clip-path="url(#6707292165)"
       id="g48"
       transform="translate(-23.710488,-138.31118)">
      <path
         fill="#77b255"
         d="m 446.1875,445.26953 c 0,0 -3.52344,-4.69922 -9.39844,-4.69922 -4.69922,0 -7.04687,2.34766 -7.04687,2.34766 0,0 4.69922,3.52344 8.22265,3.52344 3.52344,0 8.22266,-1.17188 8.22266,-1.17188 z m 0,0"
         fill-opacity="1"
         fill-rule="nonzero"
         id="path48" />
    </g>
    <path
       fill="#662113"
       d="m 423.65279,310.48179 c 0.64844,0 1.17578,-0.52735 1.17578,-1.17578 0,-4.04297 -1.41015,-7.76953 -3.87109,-10.22657 -0.45703,-0.46093 -1.19922,-0.46093 -1.66016,0 -0.46094,0.45704 -0.46094,1.20313 0,1.66016 2.02344,2.01953 3.17969,5.14453 3.17969,8.56641 0,0.64843 0.52734,1.17578 1.17578,1.17578 z m 0,0"
       fill-opacity="1"
       fill-rule="nonzero"
       id="path49" />
  </g>
</svg>
