<?xml version="1.0" encoding="UTF-8" standalone="no"?>
<svg
   width="1080"
   zoomAndPan="magnify"
   viewBox="0 0 810 89.999988"
   height="120"
   preserveAspectRatio="xMidYMid"
   version="1.0"
   id="svg49"
   sodipodi:docname="MindMates-Logo-Just-Text.svg"
   inkscape:version="1.4 (86a8ad7, 2024-10-11)"
   inkscape:export-filename="MindMates-Logo-Just-Text.png"
   inkscape:export-xdpi="170.66667"
   inkscape:export-ydpi="170.66667"
   xmlns:inkscape="http://www.inkscape.org/namespaces/inkscape"
   xmlns:sodipodi="http://sodipodi.sourceforge.net/DTD/sodipodi-0.dtd"
   xmlns="http://www.w3.org/2000/svg"
   xmlns:svg="http://www.w3.org/2000/svg">
  <sodipodi:namedview
     id="namedview49"
     pagecolor="#505050"
     bordercolor="#eeeeee"
     borderopacity="1"
     inkscape:showpageshadow="0"
     inkscape:pageopacity="0"
     inkscape:pagecheckerboard="0"
     inkscape:deskcolor="#505050"
     inkscape:zoom="0.56936829"
     inkscape:cx="562.02638"
     inkscape:cy="557.63555"
     inkscape:window-width="1920"
     inkscape:window-height="991"
     inkscape:window-x="-9"
     inkscape:window-y="-9"
     inkscape:window-maximized="1"
     inkscape:current-layer="svg49"
     showgrid="false" />
  <defs
     id="defs10">
    <g
       id="g1" />
    <clipPath
       id="636293bd18">
      <path
         d="m 249.28516,384.32812 h 311.25 v 237.69532 h -311.25 z m 0,0"
         clip-rule="nonzero"
         id="path1" />
    </clipPath>
    <clipPath
       id="7f6ab8d182">
      <path
         d="m 304.21094,527 h 35.17968 v 34.74219 h -35.17968 z m 0,0"
         clip-rule="nonzero"
         id="path2" />
    </clipPath>
    <clipPath
       id="76676cdf76">
      <path
         d="M 304.21094,522 H 321 v 7 h -16.78906 z m 0,0"
         clip-rule="nonzero"
         id="path3" />
    </clipPath>
    <clipPath
       id="c6557d8fc8">
      <path
         d="m 350.63672,456 h 35.25 v 34.94141 h -35.25 z m 0,0"
         clip-rule="nonzero"
         id="path4" />
    </clipPath>
    <clipPath
       id="041354c405">
      <path
         d="m 369,451 h 16.88672 v 7 H 369 Z m 0,0"
         clip-rule="nonzero"
         id="path5" />
    </clipPath>
    <clipPath
       id="446457edd1">
      <path
         d="m 367,448.19141 h 6 V 461 h -6 z m 0,0"
         clip-rule="nonzero"
         id="path6" />
    </clipPath>
    <clipPath
       id="04132d45b3">
      <path
         d="m 465.02734,527 h 35.25 v 34.74219 h -35.25 z m 0,0"
         clip-rule="nonzero"
         id="path7" />
    </clipPath>
    <clipPath
       id="8d2b84f1a2">
      <path
         d="m 483,522 h 17.27734 v 7 H 483 Z m 0,0"
         clip-rule="nonzero"
         id="path8" />
    </clipPath>
    <clipPath
       id="781e1e22af">
      <path
         d="m 429.77344,445 h 35.17968 v 34.67578 h -35.17968 z m 0,0"
         clip-rule="nonzero"
         id="path9" />
    </clipPath>
    <clipPath
       id="6707292165">
      <path
         d="M 429.77344,440 H 447 v 7 h -17.22656 z m 0,0"
         clip-rule="nonzero"
         id="path10" />
    </clipPath>
  </defs>
  <g
     id="g3"
     inkscape:label="letters"
     transform="matrix(1.9020818,0,0,1.9020818,-322.26779,-1003.3906)">
    <g
       fill="#c81919"
       fill-opacity="1"
       id="g17"
       transform="translate(-23.710488,-138.31118)">
      <g
         transform="translate(198.31892,707.14802)"
         id="g16">
        <g
           id="g15">
          <path
             d="m 6.8125,0.390625 c -0.929688,0 -1.640625,-0.261719 -2.140625,-0.78125 -0.5,-0.53125 -0.75,-1.257813 -0.75,-2.1875 V -32.4375 c 0,-0.957031 0.265625,-1.691406 0.796875,-2.203125 0.53125,-0.519531 1.257812,-0.78125 2.1875,-0.78125 0.820312,0 1.472656,0.164063 1.953125,0.484375 0.488281,0.3125 0.929687,0.851562 1.328125,1.609375 L 22.453125,-10.625 h -1.59375 L 33.125,-33.328125 c 0.40625,-0.757813 0.835938,-1.296875 1.296875,-1.609375 0.46875,-0.320312 1.113281,-0.484375 1.9375,-0.484375 0.925781,0 1.632813,0.261719 2.125,0.78125 0.5,0.511719 0.75,1.246094 0.75,2.203125 v 29.859375 c 0,0.929687 -0.242187,1.65625 -0.71875,2.1875 -0.480469,0.519531 -1.199219,0.78125 -2.15625,0.78125 -0.929687,0 -1.640625,-0.261719 -2.140625,-0.78125 -0.492188,-0.53125 -0.734375,-1.257813 -0.734375,-2.1875 v -23 h 1.09375 L 24.140625,-6.5625 c -0.335937,0.5625 -0.683594,0.980469 -1.046875,1.25 -0.367188,0.261719 -0.859375,0.390625 -1.484375,0.390625 -0.636719,0 -1.152344,-0.140625 -1.546875,-0.421875 C 19.664062,-5.625 19.320312,-6.03125 19.03125,-6.5625 L 8.5,-25.625 h 1.1875 v 23.046875 c 0,0.929687 -0.242188,1.65625 -0.71875,2.1875 -0.480469,0.519531 -1.199219,0.78125 -2.15625,0.78125 z m 0,0"
             id="path15" />
        </g>
      </g>
    </g>
    <g
       fill="#c81919"
       fill-opacity="1"
       id="g20"
       transform="translate(-23.710488,-138.31118)">
      <g
         transform="translate(261.19961,707.14802)"
         id="g19">
        <g
           id="g18">
          <path
             d="m 6.3125,0.34375 c -1,0 -1.765625,-0.296875 -2.296875,-0.890625 -0.523437,-0.59375 -0.78125,-1.421875 -0.78125,-2.484375 v -18.234375 c 0,-1.09375 0.257813,-1.925781 0.78125,-2.5 0.53125,-0.582031 1.296875,-0.875 2.296875,-0.875 0.988281,0 1.753906,0.292969 2.296875,0.875 0.550781,0.574219 0.828125,1.40625 0.828125,2.5 V -3.03125 c 0,1.0625 -0.265625,1.890625 -0.796875,2.484375 C 8.109375,0.046875 7.332031,0.34375 6.3125,0.34375 Z m 0,-29.59375 c -1.167969,0 -2.074219,-0.289062 -2.71875,-0.875 -0.648438,-0.582031 -0.96875,-1.382812 -0.96875,-2.40625 0,-1.0625 0.320312,-1.875 0.96875,-2.4375 0.644531,-0.5625 1.550781,-0.84375 2.71875,-0.84375 1.1875,0 2.09375,0.28125 2.71875,0.84375 0.632812,0.5625 0.953125,1.375 0.953125,2.4375 0,1.023438 -0.320313,1.824219 -0.953125,2.40625 -0.625,0.585938 -1.53125,0.875 -2.71875,0.875 z m 0,0"
             id="path17" />
        </g>
      </g>
    </g>
    <g
       fill="#c81919"
       fill-opacity="1"
       id="g23"
       transform="translate(-23.710488,-138.31118)">
      <g
         transform="translate(293.63672,707.14802)"
         id="g22">
        <g
           id="g21">
          <path
             d="m 6.3125,0.390625 c -1,0 -1.765625,-0.273437 -2.296875,-0.8125 C 3.492188,-0.960938 3.234375,-1.75 3.234375,-2.78125 V -21.5625 c 0,-1.019531 0.257813,-1.796875 0.78125,-2.328125 0.53125,-0.53125 1.28125,-0.796875 2.25,-0.796875 0.957031,0 1.695313,0.265625 2.21875,0.796875 0.53125,0.53125 0.796875,1.308594 0.796875,2.328125 v 3.375 L 8.75,-19.421875 c 0.71875,-1.75 1.847656,-3.078125 3.390625,-3.984375 1.539063,-0.914062 3.289063,-1.375 5.25,-1.375 1.945313,0 3.550781,0.367188 4.8125,1.09375 1.257813,0.730469 2.203125,1.828125 2.828125,3.296875 0.632812,1.46875 0.953125,3.335937 0.953125,5.59375 V -2.78125 c 0,1.03125 -0.265625,1.820312 -0.796875,2.359375 -0.53125,0.539063 -1.292969,0.8125 -2.28125,0.8125 -1,0 -1.777344,-0.273437 -2.328125,-0.8125 -0.542969,-0.539063 -0.8125,-1.328125 -0.8125,-2.359375 V -14.5 c 0,-1.882812 -0.355469,-3.257812 -1.0625,-4.125 -0.710937,-0.863281 -1.8125,-1.296875 -3.3125,-1.296875 -1.8125,0 -3.261719,0.574219 -4.34375,1.71875 -1.074219,1.148437 -1.609375,2.664063 -1.609375,4.546875 v 10.875 c 0,2.117188 -1.042969,3.171875 -3.125,3.171875 z m 0,0"
             id="path20" />
        </g>
      </g>
    </g>
    <g
       fill="#c81919"
       fill-opacity="1"
       id="g26"
       transform="translate(-23.710488,-138.31118)">
      <g
         transform="translate(342.46272,707.14802)"
         id="g25">
        <g
           id="g24">
          <path
             d="m 12.5625,0.5 c -2.117188,0 -3.980469,-0.5078125 -5.59375,-1.53125 -1.605469,-1.03125 -2.855469,-2.5 -3.75,-4.40625 -0.886719,-1.90625 -1.328125,-4.148438 -1.328125,-6.734375 0,-2.613281 0.441406,-4.851563 1.328125,-6.71875 0.894531,-1.875 2.144531,-3.320313 3.75,-4.34375 1.613281,-1.03125 3.476562,-1.546875 5.59375,-1.546875 2.019531,0 3.78125,0.496094 5.28125,1.484375 1.507812,0.992187 2.53125,2.296875 3.0625,3.921875 h -0.546875 v -12.90625 c 0,-1.03125 0.265625,-1.8125 0.796875,-2.34375 0.53125,-0.53125 1.289062,-0.796875 2.28125,-0.796875 1,0 1.769531,0.265625 2.3125,0.796875 0.550781,0.53125 0.828125,1.3125 0.828125,2.34375 v 29.5 c 0,1.03125 -0.265625,1.820312 -0.796875,2.359375 -0.53125,0.539063 -1.292969,0.8125 -2.28125,0.8125 -1,0 -1.765625,-0.273437 -2.296875,-0.8125 C 20.679688,-0.960938 20.421875,-1.75 20.421875,-2.78125 v -3.875 l 0.546875,1.484375 c -0.5,1.730469 -1.515625,3.109375 -3.046875,4.140625 C 16.398438,-0.0078125 14.613281,0.5 12.5625,0.5 Z m 1.75,-4.71875 c 1.21875,0 2.289062,-0.296875 3.21875,-0.890625 0.925781,-0.601563 1.644531,-1.488281 2.15625,-2.65625 0.519531,-1.175781 0.78125,-2.644531 0.78125,-4.40625 0,-2.644531 -0.5625,-4.617187 -1.6875,-5.921875 -1.125,-1.3125 -2.617188,-1.96875 -4.46875,-1.96875 -1.230469,0 -2.308594,0.292969 -3.234375,0.875 -0.929687,0.574219 -1.652344,1.449219 -2.171875,2.625 -0.511719,1.179688 -0.765625,2.640625 -0.765625,4.390625 0,2.617187 0.5625,4.59375 1.6875,5.9375 1.132813,1.34375 2.628906,2.015625 4.484375,2.015625 z m 0,0"
             id="path23" />
        </g>
      </g>
    </g>
    <g
       fill="#c81919"
       fill-opacity="1"
       id="g29"
       transform="translate(-23.710488,-138.31118)">
      <g
         transform="translate(392.03365,707.14802)"
         id="g28">
        <g
           id="g27">
          <path
             d="m 6.8125,0.390625 c -0.929688,0 -1.640625,-0.261719 -2.140625,-0.78125 -0.5,-0.53125 -0.75,-1.257813 -0.75,-2.1875 V -32.4375 c 0,-0.957031 0.265625,-1.691406 0.796875,-2.203125 0.53125,-0.519531 1.257812,-0.78125 2.1875,-0.78125 0.820312,0 1.472656,0.164063 1.953125,0.484375 0.488281,0.3125 0.929687,0.851562 1.328125,1.609375 L 22.453125,-10.625 h -1.59375 L 33.125,-33.328125 c 0.40625,-0.757813 0.835938,-1.296875 1.296875,-1.609375 0.46875,-0.320312 1.113281,-0.484375 1.9375,-0.484375 0.925781,0 1.632813,0.261719 2.125,0.78125 0.5,0.511719 0.75,1.246094 0.75,2.203125 v 29.859375 c 0,0.929687 -0.242187,1.65625 -0.71875,2.1875 -0.480469,0.519531 -1.199219,0.78125 -2.15625,0.78125 -0.929687,0 -1.640625,-0.261719 -2.140625,-0.78125 -0.492188,-0.53125 -0.734375,-1.257813 -0.734375,-2.1875 v -23 h 1.09375 L 24.140625,-6.5625 c -0.335937,0.5625 -0.683594,0.980469 -1.046875,1.25 -0.367188,0.261719 -0.859375,0.390625 -1.484375,0.390625 -0.636719,0 -1.152344,-0.140625 -1.546875,-0.421875 C 19.664062,-5.625 19.320312,-6.03125 19.03125,-6.5625 L 8.5,-25.625 h 1.1875 v 23.046875 c 0,0.929687 -0.242188,1.65625 -0.71875,2.1875 -0.480469,0.519531 -1.199219,0.78125 -2.15625,0.78125 z m 0,0"
             id="path26" />
        </g>
      </g>
    </g>
    <g
       fill="#c81919"
       fill-opacity="1"
       id="g32"
       transform="translate(-23.710488,-138.31118)">
      <g
         transform="translate(454.91435,707.14802)"
         id="g31">
        <g
           id="g30">
          <path
             d="m 11.21875,0.5 c -1.75,0 -3.3125,-0.339844 -4.6875,-1.015625 C 5.15625,-1.203125 4.078125,-2.125 3.296875,-3.28125 2.523438,-4.4375 2.140625,-5.742188 2.140625,-7.203125 c 0,-1.789063 0.460937,-3.207031 1.390625,-4.25 0.925781,-1.039063 2.429688,-1.789063 4.515625,-2.25 2.082031,-0.46875 4.878906,-0.703125 8.390625,-0.703125 h 2.484375 v 3.578125 h -2.4375 c -2.054687,0 -3.695313,0.101563 -4.921875,0.296875 -1.21875,0.199219 -2.085938,0.539062 -2.59375,1.015625 C 8.457031,-9.035156 8.203125,-8.363281 8.203125,-7.5 c 0,1.09375 0.378906,1.992188 1.140625,2.6875 0.757812,0.6875 1.816406,1.03125 3.171875,1.03125 1.09375,0 2.0625,-0.253906 2.90625,-0.765625 0.84375,-0.507813 1.515625,-1.210937 2.015625,-2.109375 0.5,-0.894531 0.75,-1.921875 0.75,-3.078125 v -5.71875 c 0,-1.65625 -0.367188,-2.84375 -1.09375,-3.5625 -0.730469,-0.726563 -1.960938,-1.09375 -3.6875,-1.09375 -0.960938,0 -1.996094,0.117187 -3.109375,0.34375 -1.105469,0.230469 -2.265625,0.625 -3.484375,1.1875 -0.636719,0.304687 -1.195312,0.386719 -1.671875,0.25 -0.480469,-0.132813 -0.855469,-0.40625 -1.125,-0.8125 -0.261719,-0.414063 -0.390625,-0.875 -0.390625,-1.375 0,-0.5 0.128906,-0.988281 0.390625,-1.46875 0.269531,-0.476563 0.71875,-0.832031 1.34375,-1.0625 1.53125,-0.625 3,-1.066406 4.40625,-1.328125 1.40625,-0.269531 2.6875,-0.40625 3.84375,-0.40625 2.382813,0 4.347656,0.367188 5.890625,1.09375 1.539062,0.730469 2.691406,1.828125 3.453125,3.296875 0.757813,1.46875 1.140625,3.367187 1.140625,5.6875 V -2.78125 c 0,1.03125 -0.25,1.820312 -0.75,2.359375 -0.5,0.539063 -1.214844,0.8125 -2.140625,0.8125 -0.929687,0 -1.648437,-0.273437 -2.15625,-0.8125 C 18.535156,-0.960938 18.28125,-1.75 18.28125,-2.78125 v -2.390625 h 0.390625 C 18.441406,-4.003906 17.988281,-3 17.3125,-2.15625 16.632812,-1.3125 15.78125,-0.65625 14.75,-0.1875 13.726562,0.269531 12.550781,0.5 11.21875,0.5 Z m 0,0"
             id="path29" />
        </g>
      </g>
    </g>
    <g
       fill="#c81919"
       fill-opacity="1"
       id="g35"
       transform="translate(-23.710488,-138.31118)">
      <g
         transform="translate(501.85314,707.14802)"
         id="g34">
        <g
           id="g33">
          <path
             d="M 14.359375,0.5 C 12.203125,0.5 10.40625,0.132812 8.96875,-0.59375 7.53125,-1.320312 6.460938,-2.390625 5.765625,-3.796875 5.066406,-5.203125 4.71875,-6.953125 4.71875,-9.046875 V -19.625 H 2.140625 c -0.804687,0 -1.417969,-0.203125 -1.84375,-0.609375 -0.425781,-0.414063 -0.640625,-0.988281 -0.640625,-1.71875 0,-0.757813 0.214844,-1.335937 0.640625,-1.734375 0.425781,-0.40625 1.039063,-0.609375 1.84375,-0.609375 H 4.71875 V -28.8125 c 0,-1.019531 0.269531,-1.796875 0.8125,-2.328125 0.550781,-0.53125 1.320312,-0.796875 2.3125,-0.796875 1,0 1.757812,0.265625 2.28125,0.796875 0.53125,0.53125 0.796875,1.308594 0.796875,2.328125 v 4.515625 H 16.1875 c 0.800781,0 1.414062,0.203125 1.84375,0.609375 0.425781,0.398438 0.640625,0.976562 0.640625,1.734375 0,0.730469 -0.214844,1.304687 -0.640625,1.71875 -0.429688,0.40625 -1.042969,0.609375 -1.84375,0.609375 h -5.265625 v 10.234375 c 0,1.59375 0.347656,2.789063 1.046875,3.578125 0.695312,0.792969 1.820312,1.1875 3.375,1.1875 0.5625,0 1.054688,-0.046875 1.484375,-0.140625 0.4375,-0.101563 0.820313,-0.171875 1.15625,-0.203125 0.394531,-0.03125 0.722656,0.09375 0.984375,0.375 0.269531,0.28125 0.40625,0.855469 0.40625,1.71875 0,0.65625 -0.109375,1.246094 -0.328125,1.765625 -0.21875,0.511719 -0.609375,0.867187 -1.171875,1.0625 -0.429688,0.1328125 -0.992188,0.257813 -1.6875,0.375 C 15.5,0.441406 14.890625,0.5 14.359375,0.5 Z m 0,0"
             id="path32" />
        </g>
      </g>
    </g>
    <g
       fill="#c81919"
       fill-opacity="1"
       id="g38"
       transform="translate(-23.710488,-138.31118)">
      <g
         transform="translate(540.69683,707.14802)"
         id="g37">
        <g
           id="g36">
          <path
             d="m 15.203125,0.5 c -2.75,0 -5.121094,-0.5078125 -7.109375,-1.53125 C 6.101562,-2.0625 4.570312,-3.519531 3.5,-5.40625 2.425781,-7.300781 1.890625,-9.539062 1.890625,-12.125 c 0,-2.507812 0.519531,-4.707031 1.5625,-6.59375 1.039063,-1.894531 2.476563,-3.378906 4.3125,-4.453125 1.84375,-1.070313 3.941406,-1.609375 6.296875,-1.609375 1.71875,0 3.265625,0.28125 4.640625,0.84375 1.375,0.5625 2.546875,1.375 3.515625,2.4375 0.976562,1.054688 1.722656,2.335938 2.234375,3.84375 0.519531,1.511719 0.78125,3.210938 0.78125,5.09375 0,0.59375 -0.210937,1.046875 -0.625,1.359375 -0.417969,0.3125 -1.007813,0.46875 -1.765625,0.46875 H 6.90625 V -14.3125 h 13.953125 l -0.796875,0.75 c 0,-1.519531 -0.226562,-2.789062 -0.671875,-3.8125 -0.449219,-1.03125 -1.09375,-1.816406 -1.9375,-2.359375 -0.84375,-0.550781 -1.890625,-0.828125 -3.140625,-0.828125 -1.398438,0 -2.585938,0.324219 -3.5625,0.96875 -0.980469,0.648438 -1.726562,1.558594 -2.234375,2.734375 C 8.003906,-15.679688 7.75,-14.285156 7.75,-12.671875 v 0.359375 c 0,2.710938 0.632812,4.734375 1.90625,6.078125 1.28125,1.34375 3.160156,2.015625 5.640625,2.015625 0.863281,0 1.832031,-0.109375 2.90625,-0.328125 1.070313,-0.21875 2.09375,-0.585937 3.0625,-1.109375 0.6875,-0.40625 1.296875,-0.582031 1.828125,-0.53125 0.53125,0.054688 0.953125,0.246094 1.265625,0.578125 0.320313,0.335937 0.515625,0.742187 0.578125,1.21875 0.0625,0.480469 -0.03125,0.96875 -0.28125,1.46875 -0.242188,0.492187 -0.664062,0.917969 -1.265625,1.28125 -1.15625,0.730469 -2.492187,1.273437 -4,1.625 -1.5,0.34375 -2.898437,0.515625 -4.1875,0.515625 z m 0,0"
             id="path35" />
        </g>
      </g>
    </g>
    <g
       fill="#c81919"
       fill-opacity="1"
       id="g41"
       transform="translate(-23.710488,-138.31118)">
      <g
         transform="translate(587.38732,707.14802)"
         id="g40">
        <g
           id="g39">
          <path
             d="M 12.125,0.5 C 10.695312,0.5 9.1875,0.347656 7.59375,0.046875 6.007812,-0.242188 4.585938,-0.753906 3.328125,-1.484375 2.796875,-1.816406 2.421875,-2.207031 2.203125,-2.65625 1.992188,-3.101562 1.910156,-3.550781 1.953125,-4 c 0.050781,-0.445312 0.21875,-0.832031 0.5,-1.15625 0.28125,-0.332031 0.644531,-0.546875 1.09375,-0.640625 0.445313,-0.101563 0.9375,-0.023437 1.46875,0.234375 1.320313,0.625 2.5625,1.0625 3.71875,1.3125 1.164063,0.25 2.3125,0.375 3.4375,0.375 1.582031,0 2.765625,-0.269531 3.546875,-0.8125 0.78125,-0.550781 1.171875,-1.273438 1.171875,-2.171875 0,-0.757813 -0.261719,-1.34375 -0.78125,-1.75 C 15.597656,-9.023438 14.832031,-9.332031 13.8125,-9.53125 l -4.96875,-0.953125 c -2.054688,-0.394531 -3.621094,-1.144531 -4.703125,-2.25 -1.074219,-1.113281 -1.609375,-2.546875 -1.609375,-4.296875 0,-1.59375 0.4375,-2.96875 1.3125,-4.125 0.882812,-1.164062 2.101562,-2.0625 3.65625,-2.6875 1.550781,-0.625 3.335938,-0.9375 5.359375,-0.9375 1.457031,0 2.820313,0.15625 4.09375,0.46875 1.28125,0.3125 2.515625,0.804688 3.703125,1.46875 0.5,0.261719 0.835938,0.609375 1.015625,1.046875 0.1875,0.429687 0.226563,0.867187 0.125,1.3125 -0.09375,0.449219 -0.292969,0.84375 -0.59375,1.1875 -0.292969,0.34375 -0.664063,0.558594 -1.109375,0.640625 -0.449219,0.08594 -0.953125,-0.0039 -1.515625,-0.265625 -1.03125,-0.53125 -2.023437,-0.910156 -2.96875,-1.140625 -0.9375,-0.238281 -1.835937,-0.359375 -2.6875,-0.359375 -1.625,0 -2.828125,0.289063 -3.609375,0.859375 -0.78125,0.5625 -1.171875,1.308594 -1.171875,2.234375 0,0.6875 0.226563,1.265625 0.6875,1.734375 0.46875,0.460938 1.1875,0.773438 2.15625,0.9375 l 4.953125,0.953125 c 2.15625,0.398437 3.785156,1.125 4.890625,2.1875 C 21.941406,-10.460938 22.5,-9.039062 22.5,-7.25 c 0,2.417969 -0.945312,4.3125 -2.828125,5.6875 C 17.785156,-0.1875 15.269531,0.5 12.125,0.5 Z m 0,0"
             id="path38" />
        </g>
      </g>
    </g>
  </g>
</svg>
