<?xml version="1.0" encoding="UTF-8" standalone="no"?>
<svg
   width="1080"
   zoomAndPan="magnify"
   viewBox="0 0 810 809.99996"
   height="1080"
   preserveAspectRatio="xMidYMid"
   version="1.0"
   id="svg49"
   sodipodi:docname="MindMates-Apple.svg"
   inkscape:version="1.4 (86a8ad7, 2024-10-11)"
   inkscape:export-filename="MindMates-Apple.png"
   inkscape:export-xdpi="170.66667"
   inkscape:export-ydpi="170.66667"
   xmlns:inkscape="http://www.inkscape.org/namespaces/inkscape"
   xmlns:sodipodi="http://sodipodi.sourceforge.net/DTD/sodipodi-0.dtd"
   xmlns="http://www.w3.org/2000/svg"
   xmlns:svg="http://www.w3.org/2000/svg">
  <sodipodi:namedview
     id="namedview49"
     pagecolor="#505050"
     bordercolor="#eeeeee"
     borderopacity="1"
     inkscape:showpageshadow="0"
     inkscape:pageopacity="0"
     inkscape:pagecheckerboard="0"
     inkscape:deskcolor="#505050"
     inkscape:zoom="0.56936829"
     inkscape:cx="357.41365"
     inkscape:cy="580.46787"
     inkscape:window-width="1920"
     inkscape:window-height="991"
     inkscape:window-x="-9"
     inkscape:window-y="-9"
     inkscape:window-maximized="1"
     inkscape:current-layer="svg49"
     showgrid="false" />
  <defs
     id="defs10">
    <g
       id="g1" />
    <clipPath
       id="636293bd18">
      <path
         d="m 249.28516,384.32812 h 311.25 v 237.69532 h -311.25 z m 0,0"
         clip-rule="nonzero"
         id="path1" />
    </clipPath>
    <clipPath
       id="7f6ab8d182">
      <path
         d="m 304.21094,527 h 35.17968 v 34.74219 h -35.17968 z m 0,0"
         clip-rule="nonzero"
         id="path2" />
    </clipPath>
    <clipPath
       id="76676cdf76">
      <path
         d="M 304.21094,522 H 321 v 7 h -16.78906 z m 0,0"
         clip-rule="nonzero"
         id="path3" />
    </clipPath>
    <clipPath
       id="c6557d8fc8">
      <path
         d="m 350.63672,456 h 35.25 v 34.94141 h -35.25 z m 0,0"
         clip-rule="nonzero"
         id="path4" />
    </clipPath>
    <clipPath
       id="041354c405">
      <path
         d="m 369,451 h 16.88672 v 7 H 369 Z m 0,0"
         clip-rule="nonzero"
         id="path5" />
    </clipPath>
    <clipPath
       id="446457edd1">
      <path
         d="m 367,448.19141 h 6 V 461 h -6 z m 0,0"
         clip-rule="nonzero"
         id="path6" />
    </clipPath>
    <clipPath
       id="04132d45b3">
      <path
         d="m 465.02734,527 h 35.25 v 34.74219 h -35.25 z m 0,0"
         clip-rule="nonzero"
         id="path7" />
    </clipPath>
    <clipPath
       id="8d2b84f1a2">
      <path
         d="m 483,522 h 17.27734 v 7 H 483 Z m 0,0"
         clip-rule="nonzero"
         id="path8" />
    </clipPath>
    <clipPath
       id="781e1e22af">
      <path
         d="m 429.77344,445 h 35.17968 v 34.67578 h -35.17968 z m 0,0"
         clip-rule="nonzero"
         id="path9" />
    </clipPath>
    <clipPath
       id="6707292165">
      <path
         d="M 429.77344,440 H 447 v 7 h -17.22656 z m 0,0"
         clip-rule="nonzero"
         id="path10" />
    </clipPath>
  </defs>
  <g
     id="g4"
     inkscape:label="Apple"
     transform="matrix(7.9603211,0,0,7.9603211,-3592.0123,-1999.7351)">
    <path
       fill="#c81919"
       d="m 440.3125,445.26953 c 3.52734,0 3.52734,1.17188 7.05078,1.17188 3.52344,0 3.52344,-1.17188 7.04688,-1.17188 4.69921,0 10.57421,2.34766 10.57421,10.57031 0,12.92578 -7.04687,23.4961 -11.74609,23.4961 -3.52734,0 -3.52734,-1.17188 -5.875,-1.17188 -2.35156,0 -2.35156,1.17188 -5.875,1.17188 -4.69922,0 -11.74609,-10.57032 -11.74609,-23.4961 0,-8.22265 5.87109,-10.57031 10.57031,-10.57031 z m 0,0"
       fill-opacity="1"
       fill-rule="nonzero"
       id="path47"
       transform="matrix(2.2876287,0,0,2.2876287,-521.28411,-746.07936)" />
    <path
       fill="#77b255"
       d="m 446.1875,445.26953 c 0,0 -3.52344,-4.69922 -9.39844,-4.69922 -4.69922,0 -7.04687,2.34766 -7.04687,2.34766 0,0 4.69922,3.52344 8.22265,3.52344 3.52344,0 8.22266,-1.17188 8.22266,-1.17188 z m 0,0"
       fill-opacity="1"
       fill-rule="nonzero"
       id="path48"
       transform="matrix(2.2876287,0,0,2.2876287,-521.28411,-746.07936)" />
    <path
       fill="#662113"
       d="m 502.11696,280.59231 c 1.48339,0 2.68975,-1.20638 2.68975,-2.68974 0,-9.24882 -3.2259,-17.7738 -8.85562,-23.3946 -1.04551,-1.05444 -2.74337,-1.05444 -3.79783,0 -1.05446,1.04554 -1.05446,2.75232 0,3.79783 4.62888,4.61993 7.27395,11.76877 7.27395,19.59677 0,1.48336 1.20636,2.68974 2.68975,2.68974 z m 0,0"
       fill-opacity="1"
       fill-rule="nonzero"
       id="path49"
       style="stroke-width:2.28763" />
  </g>
</svg>
